# This file uses centimeters as units for non-parametric coordinates.

mtllib cylinderOpenFlipped.mtl
g default
v 0.980784 0.195090 -1.000000
v 0.923879 0.382683 -1.000000
v 0.831469 0.555569 -1.000000
v 0.707106 0.707106 -1.000000
v 0.555570 0.831468 -1.000000
v 0.382683 0.923878 -1.000000
v 0.195091 0.980784 -1.000000
v 0.000000 0.999999 -1.000000
v -0.195090 0.980784 -1.000000
v -0.382683 0.923879 -1.000000
v -0.555569 0.831469 -1.000000
v -0.707106 0.707106 -1.000000
v -0.831469 0.555570 -1.000000
v -0.923879 0.382683 -1.000000
v -0.980785 0.195091 -1.000000
v -0.999999 0.000000 -1.000000
v -0.980785 -0.195090 -1.000000
v -0.923879 -0.382683 -1.000000
v -0.831469 -0.555570 -1.000000
v -0.707107 -0.707106 -1.000000
v -0.555570 -0.831469 -1.000000
v -0.382683 -0.923879 -1.000000
v -0.195090 -0.980785 -1.000000
v -0.000000 -1.000000 -1.000000
v 0.195090 -0.980785 -1.000000
v 0.382683 -0.923879 -1.000000
v 0.555570 -0.831470 -1.000000
v 0.707107 -0.707107 -1.000000
v 0.831469 -0.555570 -1.000000
v 0.923879 -0.382683 -1.000000
v 0.980785 -0.195090 -1.000000
v 1.000000 0.000000 -1.000000
v 0.980784 0.195090 1.000000
v 0.923879 0.382683 1.000000
v 0.831469 0.555569 1.000000
v 0.707106 0.707106 1.000000
v 0.555570 0.831468 1.000000
v 0.382683 0.923878 1.000000
v 0.195091 0.980784 1.000000
v 0.000000 0.999999 1.000000
v -0.195090 0.980784 1.000000
v -0.382683 0.923879 1.000000
v -0.555569 0.831469 1.000000
v -0.707106 0.707106 1.000000
v -0.831469 0.555570 1.000000
v -0.923879 0.382683 1.000000
v -0.980785 0.195091 1.000000
v -0.999999 0.000000 1.000000
v -0.980785 -0.195090 1.000000
v -0.923879 -0.382683 1.000000
v -0.831469 -0.555570 1.000000
v -0.707107 -0.707106 1.000000
v -0.555570 -0.831469 1.000000
v -0.382683 -0.923879 1.000000
v -0.195090 -0.980785 1.000000
v -0.000000 -1.000000 1.000000
v 0.195090 -0.980785 1.000000
v 0.382683 -0.923879 1.000000
v 0.555570 -0.831470 1.000000
v 0.707107 -0.707107 1.000000
v 0.831469 -0.555570 1.000000
v 0.923879 -0.382683 1.000000
v 0.980785 -0.195090 1.000000
v 1.000000 0.000000 1.000000
vt 0.375000 0.312500
vt 0.382813 0.312500
vt 0.390625 0.312500
vt 0.398438 0.312500
vt 0.406250 0.312500
vt 0.414063 0.312500
vt 0.421875 0.312500
vt 0.429688 0.312500
vt 0.437500 0.312500
vt 0.445313 0.312500
vt 0.453125 0.312500
vt 0.460938 0.312500
vt 0.468750 0.312500
vt 0.476563 0.312500
vt 0.484375 0.312500
vt 0.492188 0.312500
vt 0.500000 0.312500
vt 0.507813 0.312500
vt 0.515625 0.312500
vt 0.523438 0.312500
vt 0.531250 0.312500
vt 0.539063 0.312500
vt 0.546875 0.312500
vt 0.554688 0.312500
vt 0.562500 0.312500
vt 0.570313 0.312500
vt 0.578125 0.312500
vt 0.585938 0.312500
vt 0.593750 0.312500
vt 0.601563 0.312500
vt 0.609375 0.312500
vt 0.617188 0.312500
vt 0.625000 0.312500
vt 0.375000 0.688440
vt 0.382813 0.688440
vt 0.390625 0.688440
vt 0.398438 0.688440
vt 0.406250 0.688440
vt 0.414063 0.688440
vt 0.421875 0.688440
vt 0.429688 0.688440
vt 0.437500 0.688440
vt 0.445313 0.688440
vt 0.453125 0.688440
vt 0.460938 0.688440
vt 0.468750 0.688440
vt 0.476563 0.688440
vt 0.484375 0.688440
vt 0.492188 0.688440
vt 0.500000 0.688440
vt 0.507813 0.688440
vt 0.515625 0.688440
vt 0.523438 0.688440
vt 0.531250 0.688440
vt 0.539063 0.688440
vt 0.546875 0.688440
vt 0.554688 0.688440
vt 0.562500 0.688440
vt 0.570313 0.688440
vt 0.578125 0.688440
vt 0.585938 0.688440
vt 0.593750 0.688440
vt 0.601563 0.688440
vt 0.609375 0.688440
vt 0.617188 0.688440
vt 0.625000 0.688440
vn -0.980785 -0.195093 0.000000
vn -0.980785 -0.195093 0.000000
vn -0.923880 -0.382683 0.000000
vn -0.923880 -0.382683 0.000000
vn -0.831470 -0.555570 0.000000
vn -0.831470 -0.555570 0.000000
vn -0.707107 -0.707106 0.000000
vn -0.707107 -0.707106 0.000000
vn -0.555571 -0.831469 0.000000
vn -0.555571 -0.831469 0.000000
vn -0.382684 -0.923879 0.000000
vn -0.382684 -0.923879 0.000000
vn -0.195091 -0.980785 0.000000
vn -0.195091 -0.980785 0.000000
vn -0.000000 -1.000000 0.000000
vn -0.000000 -1.000000 0.000000
vn 0.195090 -0.980785 0.000000
vn 0.195090 -0.980785 0.000000
vn 0.382683 -0.923880 0.000000
vn 0.382683 -0.923880 0.000000
vn 0.555570 -0.831470 0.000000
vn 0.555570 -0.831470 0.000000
vn 0.707106 -0.707107 0.000000
vn 0.707106 -0.707107 0.000000
vn 0.831469 -0.555571 0.000000
vn 0.831469 -0.555571 0.000000
vn 0.923879 -0.382684 0.000000
vn 0.923879 -0.382684 0.000000
vn 0.980785 -0.195091 0.000000
vn 0.980785 -0.195091 0.000000
vn 1.000000 -0.000001 0.000000
vn 1.000000 -0.000001 0.000000
vn 0.980785 0.195090 0.000000
vn 0.980785 0.195090 0.000000
vn 0.923880 0.382683 0.000000
vn 0.923880 0.382683 0.000000
vn 0.831470 0.555570 0.000000
vn 0.831470 0.555570 0.000000
vn 0.707107 0.707106 0.000000
vn 0.707107 0.707106 0.000000
vn 0.555571 0.831469 0.000000
vn 0.555571 0.831469 0.000000
vn 0.382684 0.923879 0.000000
vn 0.382684 0.923879 0.000000
vn 0.195091 0.980785 0.000000
vn 0.195091 0.980785 0.000000
vn 0.000000 1.000000 0.000000
vn 0.000000 1.000000 0.000000
vn -0.195090 0.980785 0.000000
vn -0.195090 0.980785 0.000000
vn -0.382683 0.923880 0.000000
vn -0.382683 0.923880 0.000000
vn -0.555570 0.831470 0.000000
vn -0.555570 0.831470 0.000000
vn -0.707107 0.707107 0.000000
vn -0.707107 0.707107 0.000000
vn -0.831470 0.555570 0.000000
vn -0.831470 0.555570 0.000000
vn -0.923879 0.382684 0.000000
vn -0.923879 0.382684 0.000000
vn -0.980785 0.195091 0.000000
vn -0.980785 0.195091 0.000000
vn -1.000000 -0.000003 0.000000
vn -1.000000 -0.000003 0.000000
s 1
g pCylinder1
usemtl initialShadingGroup
f 1/1/1 33/34/2 34/35/3 2/2/4
f 2/2/4 34/35/3 35/36/5 3/3/6
f 3/3/6 35/36/5 36/37/7 4/4/8
f 4/4/8 36/37/7 37/38/9 5/5/10
f 5/5/10 37/38/9 38/39/11 6/6/12
f 6/6/12 38/39/11 39/40/13 7/7/14
f 7/7/14 39/40/13 40/41/15 8/8/16
f 8/8/16 40/41/15 41/42/17 9/9/18
f 9/9/18 41/42/17 42/43/19 10/10/20
f 10/10/20 42/43/19 43/44/21 11/11/22
f 11/11/22 43/44/21 44/45/23 12/12/24
f 12/12/24 44/45/23 45/46/25 13/13/26
f 13/13/26 45/46/25 46/47/27 14/14/28
f 14/14/28 46/47/27 47/48/29 15/15/30
f 15/15/30 47/48/29 48/49/31 16/16/32
f 16/16/32 48/49/31 49/50/33 17/17/34
f 17/17/34 49/50/33 50/51/35 18/18/36
f 18/18/36 50/51/35 51/52/37 19/19/38
f 19/19/38 51/52/37 52/53/39 20/20/40
f 20/20/40 52/53/39 53/54/41 21/21/42
f 21/21/42 53/54/41 54/55/43 22/22/44
f 22/22/44 54/55/43 55/56/45 23/23/46
f 23/23/46 55/56/45 56/57/47 24/24/48
f 24/24/48 56/57/47 57/58/49 25/25/50
f 25/25/50 57/58/49 58/59/51 26/26/52
f 26/26/52 58/59/51 59/60/53 27/27/54
f 27/27/54 59/60/53 60/61/55 28/28/56
f 28/28/56 60/61/55 61/62/57 29/29/58
f 29/29/58 61/62/57 62/63/59 30/30/60
f 30/30/60 62/63/59 63/64/61 31/31/62
f 31/31/62 63/64/61 64/65/63 32/32/64
f 32/32/64 64/65/63 33/66/2 1/33/1
g default
v 0.980784 0.195090 -1.000000
v 0.923879 0.382683 -1.000000
v 0.831469 0.555569 -1.000000
v 0.707106 0.707106 -1.000000
v 0.555570 0.831468 -1.000000
v 0.382683 0.923878 -1.000000
v 0.195091 0.980784 -1.000000
v 0.000000 0.999999 -1.000000
v -0.195090 0.980784 -1.000000
v -0.382683 0.923879 -1.000000
v -0.555569 0.831469 -1.000000
v -0.707106 0.707106 -1.000000
v -0.831469 0.555570 -1.000000
v -0.923879 0.382683 -1.000000
v -0.980785 0.195091 -1.000000
v -0.999999 0.000000 -1.000000
v -0.980785 -0.195090 -1.000000
v -0.923879 -0.382683 -1.000000
v -0.831469 -0.555570 -1.000000
v -0.707107 -0.707106 -1.000000
v -0.555570 -0.831469 -1.000000
v -0.382683 -0.923879 -1.000000
v -0.195090 -0.980785 -1.000000
v -0.000000 -1.000000 -1.000000
v 0.195090 -0.980785 -1.000000
v 0.382683 -0.923879 -1.000000
v 0.555570 -0.831470 -1.000000
v 0.707107 -0.707107 -1.000000
v 0.831469 -0.555570 -1.000000
v 0.923879 -0.382683 -1.000000
v 0.980785 -0.195090 -1.000000
v 1.000000 0.000000 -1.000000
v 0.980784 0.195090 1.000000
v 0.923879 0.382683 1.000000
v 0.831469 0.555569 1.000000
v 0.707106 0.707106 1.000000
v 0.555570 0.831468 1.000000
v 0.382683 0.923878 1.000000
v 0.195091 0.980784 1.000000
v 0.000000 0.999999 1.000000
v -0.195090 0.980784 1.000000
v -0.382683 0.923879 1.000000
v -0.555569 0.831469 1.000000
v -0.707106 0.707106 1.000000
v -0.831469 0.555570 1.000000
v -0.923879 0.382683 1.000000
v -0.980785 0.195091 1.000000
v -0.999999 0.000000 1.000000
v -0.980785 -0.195090 1.000000
v -0.923879 -0.382683 1.000000
v -0.831469 -0.555570 1.000000
v -0.707107 -0.707106 1.000000
v -0.555570 -0.831469 1.000000
v -0.382683 -0.923879 1.000000
v -0.195090 -0.980785 1.000000
v -0.000000 -1.000000 1.000000
v 0.195090 -0.980785 1.000000
v 0.382683 -0.923879 1.000000
v 0.555570 -0.831470 1.000000
v 0.707107 -0.707107 1.000000
v 0.831469 -0.555570 1.000000
v 0.923879 -0.382683 1.000000
v 0.980785 -0.195090 1.000000
v 1.000000 0.000000 1.000000
vt 0.375000 0.312500
vt 0.382813 0.312500
vt 0.390625 0.312500
vt 0.398438 0.312500
vt 0.406250 0.312500
vt 0.414063 0.312500
vt 0.421875 0.312500
vt 0.429688 0.312500
vt 0.437500 0.312500
vt 0.445313 0.312500
vt 0.453125 0.312500
vt 0.460938 0.312500
vt 0.468750 0.312500
vt 0.476563 0.312500
vt 0.484375 0.312500
vt 0.492188 0.312500
vt 0.500000 0.312500
vt 0.507813 0.312500
vt 0.515625 0.312500
vt 0.523438 0.312500
vt 0.531250 0.312500
vt 0.539063 0.312500
vt 0.546875 0.312500
vt 0.554688 0.312500
vt 0.562500 0.312500
vt 0.570313 0.312500
vt 0.578125 0.312500
vt 0.585938 0.312500
vt 0.593750 0.312500
vt 0.601563 0.312500
vt 0.609375 0.312500
vt 0.617188 0.312500
vt 0.625000 0.312500
vt 0.375000 0.688440
vt 0.382813 0.688440
vt 0.390625 0.688440
vt 0.398438 0.688440
vt 0.406250 0.688440
vt 0.414063 0.688440
vt 0.421875 0.688440
vt 0.429688 0.688440
vt 0.437500 0.688440
vt 0.445313 0.688440
vt 0.453125 0.688440
vt 0.460938 0.688440
vt 0.468750 0.688440
vt 0.476563 0.688440
vt 0.484375 0.688440
vt 0.492188 0.688440
vt 0.500000 0.688440
vt 0.507813 0.688440
vt 0.515625 0.688440
vt 0.523438 0.688440
vt 0.531250 0.688440
vt 0.539063 0.688440
vt 0.546875 0.688440
vt 0.554688 0.688440
vt 0.562500 0.688440
vt 0.570313 0.688440
vt 0.578125 0.688440
vt 0.585938 0.688440
vt 0.593750 0.688440
vt 0.601563 0.688440
vt 0.609375 0.688440
vt 0.617188 0.688440
vt 0.625000 0.688440
vn -0.980785 -0.195093 0.000000
vn -0.980785 -0.195093 0.000000
vn -0.923880 -0.382683 0.000000
vn -0.923880 -0.382683 0.000000
vn -0.831470 -0.555570 0.000000
vn -0.831470 -0.555570 0.000000
vn -0.707107 -0.707106 0.000000
vn -0.707107 -0.707106 0.000000
vn -0.555571 -0.831469 0.000000
vn -0.555571 -0.831469 0.000000
vn -0.382684 -0.923879 0.000000
vn -0.382684 -0.923879 0.000000
vn -0.195091 -0.980785 0.000000
vn -0.195091 -0.980785 0.000000
vn -0.000000 -1.000000 0.000000
vn -0.000000 -1.000000 0.000000
vn 0.195090 -0.980785 0.000000
vn 0.195090 -0.980785 0.000000
vn 0.382683 -0.923880 0.000000
vn 0.382683 -0.923880 0.000000
vn 0.555570 -0.831470 0.000000
vn 0.555570 -0.831470 0.000000
vn 0.707106 -0.707107 0.000000
vn 0.707106 -0.707107 0.000000
vn 0.831469 -0.555571 0.000000
vn 0.831469 -0.555571 0.000000
vn 0.923879 -0.382684 0.000000
vn 0.923879 -0.382684 0.000000
vn 0.980785 -0.195091 0.000000
vn 0.980785 -0.195091 0.000000
vn 1.000000 -0.000001 0.000000
vn 1.000000 -0.000001 0.000000
vn 0.980785 0.195090 0.000000
vn 0.980785 0.195090 0.000000
vn 0.923880 0.382683 0.000000
vn 0.923880 0.382683 0.000000
vn 0.831470 0.555570 0.000000
vn 0.831470 0.555570 0.000000
vn 0.707107 0.707106 0.000000
vn 0.707107 0.707106 0.000000
vn 0.555571 0.831469 0.000000
vn 0.555571 0.831469 0.000000
vn 0.382684 0.923879 0.000000
vn 0.382684 0.923879 0.000000
vn 0.195091 0.980785 0.000000
vn 0.195091 0.980785 0.000000
vn 0.000000 1.000000 0.000000
vn 0.000000 1.000000 0.000000
vn -0.195090 0.980785 0.000000
vn -0.195090 0.980785 0.000000
vn -0.382683 0.923880 0.000000
vn -0.382683 0.923880 0.000000
vn -0.555570 0.831470 0.000000
vn -0.555570 0.831470 0.000000
vn -0.707107 0.707107 0.000000
vn -0.707107 0.707107 0.000000
vn -0.831470 0.555570 0.000000
vn -0.831470 0.555570 0.000000
vn -0.923879 0.382684 0.000000
vn -0.923879 0.382684 0.000000
vn -0.980785 0.195091 0.000000
vn -0.980785 0.195091 0.000000
vn -1.000000 -0.000003 0.000000
vn -1.000000 -0.000003 0.000000
s 1
g pCylinder1
f 65/67/65 97/100/66 98/101/67 66/68/68
f 66/68/68 98/101/67 99/102/69 67/69/70
f 67/69/70 99/102/69 100/103/71 68/70/72
f 68/70/72 100/103/71 101/104/73 69/71/74
f 69/71/74 101/104/73 102/105/75 70/72/76
f 70/72/76 102/105/75 103/106/77 71/73/78
f 71/73/78 103/106/77 104/107/79 72/74/80
f 72/74/80 104/107/79 105/108/81 73/75/82
f 73/75/82 105/108/81 106/109/83 74/76/84
f 74/76/84 106/109/83 107/110/85 75/77/86
f 75/77/86 107/110/85 108/111/87 76/78/88
f 76/78/88 108/111/87 109/112/89 77/79/90
f 77/79/90 109/112/89 110/113/91 78/80/92
f 78/80/92 110/113/91 111/114/93 79/81/94
f 79/81/94 111/114/93 112/115/95 80/82/96
f 80/82/96 112/115/95 113/116/97 81/83/98
f 81/83/98 113/116/97 114/117/99 82/84/100
f 82/84/100 114/117/99 115/118/101 83/85/102
f 83/85/102 115/118/101 116/119/103 84/86/104
f 84/86/104 116/119/103 117/120/105 85/87/106
f 85/87/106 117/120/105 118/121/107 86/88/108
f 86/88/108 118/121/107 119/122/109 87/89/110
f 87/89/110 119/122/109 120/123/111 88/90/112
f 88/90/112 120/123/111 121/124/113 89/91/114
f 89/91/114 121/124/113 122/125/115 90/92/116
f 90/92/116 122/125/115 123/126/117 91/93/118
f 91/93/118 123/126/117 124/127/119 92/94/120
f 92/94/120 124/127/119 125/128/121 93/95/122
f 93/95/122 125/128/121 126/129/123 94/96/124
f 94/96/124 126/129/123 127/130/125 95/97/126
f 95/97/126 127/130/125 128/131/127 96/98/128
f 96/98/128 128/131/127 97/132/66 65/99/65
g default
v 0.980784 0.195090 -1.000000
v 0.923879 0.382683 -1.000000
v 0.831469 0.555569 -1.000000
v 0.707106 0.707106 -1.000000
v 0.555570 0.831468 -1.000000
v 0.382683 0.923878 -1.000000
v 0.195091 0.980784 -1.000000
v 0.000000 0.999999 -1.000000
v -0.195090 0.980784 -1.000000
v -0.382683 0.923879 -1.000000
v -0.555569 0.831469 -1.000000
v -0.707106 0.707106 -1.000000
v -0.831469 0.555570 -1.000000
v -0.923879 0.382683 -1.000000
v -0.980785 0.195091 -1.000000
v -0.999999 0.000000 -1.000000
v -0.980785 -0.195090 -1.000000
v -0.923879 -0.382683 -1.000000
v -0.831469 -0.555570 -1.000000
v -0.707107 -0.707106 -1.000000
v -0.555570 -0.831469 -1.000000
v -0.382683 -0.923879 -1.000000
v -0.195090 -0.980785 -1.000000
v -0.000000 -1.000000 -1.000000
v 0.195090 -0.980785 -1.000000
v 0.382683 -0.923879 -1.000000
v 0.555570 -0.831470 -1.000000
v 0.707107 -0.707107 -1.000000
v 0.831469 -0.555570 -1.000000
v 0.923879 -0.382683 -1.000000
v 0.980785 -0.195090 -1.000000
v 1.000000 0.000000 -1.000000
v 0.980784 0.195090 1.000000
v 0.923879 0.382683 1.000000
v 0.831469 0.555569 1.000000
v 0.707106 0.707106 1.000000
v 0.555570 0.831468 1.000000
v 0.382683 0.923878 1.000000
v 0.195091 0.980784 1.000000
v 0.000000 0.999999 1.000000
v -0.195090 0.980784 1.000000
v -0.382683 0.923879 1.000000
v -0.555569 0.831469 1.000000
v -0.707106 0.707106 1.000000
v -0.831469 0.555570 1.000000
v -0.923879 0.382683 1.000000
v -0.980785 0.195091 1.000000
v -0.999999 0.000000 1.000000
v -0.980785 -0.195090 1.000000
v -0.923879 -0.382683 1.000000
v -0.831469 -0.555570 1.000000
v -0.707107 -0.707106 1.000000
v -0.555570 -0.831469 1.000000
v -0.382683 -0.923879 1.000000
v -0.195090 -0.980785 1.000000
v -0.000000 -1.000000 1.000000
v 0.195090 -0.980785 1.000000
v 0.382683 -0.923879 1.000000
v 0.555570 -0.831470 1.000000
v 0.707107 -0.707107 1.000000
v 0.831469 -0.555570 1.000000
v 0.923879 -0.382683 1.000000
v 0.980785 -0.195090 1.000000
v 1.000000 0.000000 1.000000
vt 0.375000 0.312500
vt 0.382813 0.312500
vt 0.390625 0.312500
vt 0.398438 0.312500
vt 0.406250 0.312500
vt 0.414063 0.312500
vt 0.421875 0.312500
vt 0.429688 0.312500
vt 0.437500 0.312500
vt 0.445313 0.312500
vt 0.453125 0.312500
vt 0.460938 0.312500
vt 0.468750 0.312500
vt 0.476563 0.312500
vt 0.484375 0.312500
vt 0.492188 0.312500
vt 0.500000 0.312500
vt 0.507813 0.312500
vt 0.515625 0.312500
vt 0.523438 0.312500
vt 0.531250 0.312500
vt 0.539063 0.312500
vt 0.546875 0.312500
vt 0.554688 0.312500
vt 0.562500 0.312500
vt 0.570313 0.312500
vt 0.578125 0.312500
vt 0.585938 0.312500
vt 0.593750 0.312500
vt 0.601563 0.312500
vt 0.609375 0.312500
vt 0.617188 0.312500
vt 0.625000 0.312500
vt 0.375000 0.688440
vt 0.382813 0.688440
vt 0.390625 0.688440
vt 0.398438 0.688440
vt 0.406250 0.688440
vt 0.414063 0.688440
vt 0.421875 0.688440
vt 0.429688 0.688440
vt 0.437500 0.688440
vt 0.445313 0.688440
vt 0.453125 0.688440
vt 0.460938 0.688440
vt 0.468750 0.688440
vt 0.476563 0.688440
vt 0.484375 0.688440
vt 0.492188 0.688440
vt 0.500000 0.688440
vt 0.507813 0.688440
vt 0.515625 0.688440
vt 0.523438 0.688440
vt 0.531250 0.688440
vt 0.539063 0.688440
vt 0.546875 0.688440
vt 0.554688 0.688440
vt 0.562500 0.688440
vt 0.570313 0.688440
vt 0.578125 0.688440
vt 0.585938 0.688440
vt 0.593750 0.688440
vt 0.601563 0.688440
vt 0.609375 0.688440
vt 0.617188 0.688440
vt 0.625000 0.688440
vn -0.980785 -0.195093 0.000000
vn -0.980785 -0.195093 0.000000
vn -0.923880 -0.382683 0.000000
vn -0.923880 -0.382683 0.000000
vn -0.831470 -0.555570 0.000000
vn -0.831470 -0.555570 0.000000
vn -0.707107 -0.707106 0.000000
vn -0.707107 -0.707106 0.000000
vn -0.555571 -0.831469 0.000000
vn -0.555571 -0.831469 0.000000
vn -0.382684 -0.923879 0.000000
vn -0.382684 -0.923879 0.000000
vn -0.195091 -0.980785 0.000000
vn -0.195091 -0.980785 0.000000
vn -0.000000 -1.000000 0.000000
vn -0.000000 -1.000000 0.000000
vn 0.195090 -0.980785 0.000000
vn 0.195090 -0.980785 0.000000
vn 0.382683 -0.923880 0.000000
vn 0.382683 -0.923880 0.000000
vn 0.555570 -0.831470 0.000000
vn 0.555570 -0.831470 0.000000
vn 0.707106 -0.707107 0.000000
vn 0.707106 -0.707107 0.000000
vn 0.831469 -0.555571 0.000000
vn 0.831469 -0.555571 0.000000
vn 0.923879 -0.382684 0.000000
vn 0.923879 -0.382684 0.000000
vn 0.980785 -0.195091 0.000000
vn 0.980785 -0.195091 0.000000
vn 1.000000 -0.000001 0.000000
vn 1.000000 -0.000001 0.000000
vn 0.980785 0.195090 0.000000
vn 0.980785 0.195090 0.000000
vn 0.923880 0.382683 0.000000
vn 0.923880 0.382683 0.000000
vn 0.831470 0.555570 0.000000
vn 0.831470 0.555570 0.000000
vn 0.707107 0.707106 0.000000
vn 0.707107 0.707106 0.000000
vn 0.555571 0.831469 0.000000
vn 0.555571 0.831469 0.000000
vn 0.382684 0.923879 0.000000
vn 0.382684 0.923879 0.000000
vn 0.195091 0.980785 0.000000
vn 0.195091 0.980785 0.000000
vn 0.000000 1.000000 0.000000
vn 0.000000 1.000000 0.000000
vn -0.195090 0.980785 0.000000
vn -0.195090 0.980785 0.000000
vn -0.382683 0.923880 0.000000
vn -0.382683 0.923880 0.000000
vn -0.555570 0.831470 0.000000
vn -0.555570 0.831470 0.000000
vn -0.707107 0.707107 0.000000
vn -0.707107 0.707107 0.000000
vn -0.831470 0.555570 0.000000
vn -0.831470 0.555570 0.000000
vn -0.923879 0.382684 0.000000
vn -0.923879 0.382684 0.000000
vn -0.980785 0.195091 0.000000
vn -0.980785 0.195091 0.000000
vn -1.000000 -0.000003 0.000000
vn -1.000000 -0.000003 0.000000
s 1
g pCylinder1
f 129/133/129 161/166/130 162/167/131 130/134/132
f 130/134/132 162/167/131 163/168/133 131/135/134
f 131/135/134 163/168/133 164/169/135 132/136/136
f 132/136/136 164/169/135 165/170/137 133/137/138
f 133/137/138 165/170/137 166/171/139 134/138/140
f 134/138/140 166/171/139 167/172/141 135/139/142
f 135/139/142 167/172/141 168/173/143 136/140/144
f 136/140/144 168/173/143 169/174/145 137/141/146
f 137/141/146 169/174/145 170/175/147 138/142/148
f 138/142/148 170/175/147 171/176/149 139/143/150
f 139/143/150 171/176/149 172/177/151 140/144/152
f 140/144/152 172/177/151 173/178/153 141/145/154
f 141/145/154 173/178/153 174/179/155 142/146/156
f 142/146/156 174/179/155 175/180/157 143/147/158
f 143/147/158 175/180/157 176/181/159 144/148/160
f 144/148/160 176/181/159 177/182/161 145/149/162
f 145/149/162 177/182/161 178/183/163 146/150/164
f 146/150/164 178/183/163 179/184/165 147/151/166
f 147/151/166 179/184/165 180/185/167 148/152/168
f 148/152/168 180/185/167 181/186/169 149/153/170
f 149/153/170 181/186/169 182/187/171 150/154/172
f 150/154/172 182/187/171 183/188/173 151/155/174
f 151/155/174 183/188/173 184/189/175 152/156/176
f 152/156/176 184/189/175 185/190/177 153/157/178
f 153/157/178 185/190/177 186/191/179 154/158/180
f 154/158/180 186/191/179 187/192/181 155/159/182
f 155/159/182 187/192/181 188/193/183 156/160/184
f 156/160/184 188/193/183 189/194/185 157/161/186
f 157/161/186 189/194/185 190/195/187 158/162/188
f 158/162/188 190/195/187 191/196/189 159/163/190
f 159/163/190 191/196/189 192/197/191 160/164/192
f 160/164/192 192/197/191 161/198/130 129/165/129
