# This file uses centimeters as units for non-parametric coordinates.

mtllib frameTest.mtl
g default
v -0.500000 -0.050000 0.500000
v 0.500000 -0.050000 0.500000
v -0.500000 -0.050000 -0.500000
v 0.500000 -0.050000 -0.500000
v -0.428502 0.000000 0.428502
v 0.428502 0.000000 0.428502
v 0.428502 0.000000 -0.428502
v -0.428502 0.000000 -0.428502
v -0.500000 0.030776 0.500000
v -0.480776 0.050000 0.480776
v 0.500000 0.030776 0.500000
v 0.480776 0.050000 0.480776
v -0.500000 0.030776 -0.500000
v -0.480776 0.050000 -0.480776
v 0.500000 0.030776 -0.500000
v 0.480776 0.050000 -0.480776
v -0.465126 0.050000 0.465126
v -0.442583 0.034803 0.442583
v 0.465126 0.050000 0.465126
v 0.442583 0.034803 0.442583
v 0.465126 0.050000 -0.465126
v 0.442583 0.034803 -0.442583
v -0.465126 0.050000 -0.465126
v -0.442583 0.034803 -0.442583
vt 0.625000 0.750000
vt 0.375000 1.000000
vt 0.625000 1.000000
vt 0.129806 0.250000
vt 0.629806 0.250000
vt 0.875000 0.201941
vt 0.870194 0.250000
vt 0.375000 0.548059
vt 0.625000 0.000000
vt 0.375000 0.201941
vt 0.625000 0.548059
vt 0.375000 0.750000
vt 0.875000 0.000000
vt 0.625000 0.201941
vt 0.125000 0.000000
vt 0.375000 0.000000
vt 0.125000 0.201941
vt 0.625000 0.250000
vt 0.375000 0.250000
vt 0.625000 0.500000
vt 0.625000 0.250000
vt 0.375000 0.500000
vt 0.625000 0.500000
vt 0.375000 0.250000
vt 0.375000 0.500000
vt 0.625000 0.250000
vt 0.375000 0.250000
vt 0.625000 0.500000
vt 0.625000 0.250000
vt 0.375000 0.500000
vt 0.625000 0.500000
vt 0.375000 0.250000
vt 0.375000 0.500000
vn 0.000000 1.000000 0.000000
vn 0.000000 1.000000 0.000000
vn 0.000000 1.000000 0.000000
vn 0.000000 1.000000 0.000000
vn 0.000000 -1.000000 0.000000
vn 0.000000 -1.000000 0.000000
vn 0.000000 -1.000000 0.000000
vn 0.000000 -1.000000 0.000000
vn -0.707107 0.707106 0.000000
vn -0.707107 0.707106 0.000000
vn -0.707107 0.707106 0.000000
vn -0.707107 0.707106 0.000000
vn 0.000000 0.707107 0.707107
vn 0.000000 0.707107 0.707107
vn 0.000000 0.707107 0.707107
vn 0.000000 0.707107 0.707107
vn 0.707107 0.707106 0.000000
vn 0.707107 0.707106 0.000000
vn 0.707107 0.707106 0.000000
vn 0.707107 0.707106 0.000000
vn 0.000000 0.707107 -0.707107
vn 0.000000 0.707107 -0.707107
vn 0.000000 0.707107 -0.707107
vn 0.000000 0.707107 -0.707107
vn 0.558989 0.829175 0.000000
vn 0.558989 0.829175 0.000000
vn 0.558989 0.829175 0.000000
vn 0.558989 0.829175 0.000000
vn 0.000000 0.829175 -0.558989
vn 0.000000 0.829175 -0.558989
vn 0.000000 0.829175 -0.558989
vn 0.000000 0.829175 -0.558989
vn -0.558989 0.829175 0.000000
vn -0.558989 0.829175 0.000000
vn -0.558989 0.829175 0.000000
vn -0.558989 0.829175 0.000000
vn 0.000000 0.829175 0.558989
vn 0.000000 0.829175 0.558989
vn 0.000000 0.829175 0.558989
vn 0.000000 0.829175 0.558989
vn 0.000000 0.000000 1.000000
vn 0.000000 0.000000 1.000000
vn 0.000000 0.000000 1.000000
vn 0.000000 0.000000 1.000000
vn 0.000000 0.000000 -1.000000
vn 0.000000 0.000000 -1.000000
vn 0.000000 0.000000 -1.000000
vn 0.000000 0.000000 -1.000000
vn 1.000000 0.000000 0.000000
vn 1.000000 0.000000 0.000000
vn 1.000000 0.000000 0.000000
vn 1.000000 0.000000 0.000000
vn -1.000000 0.000000 0.000000
vn -1.000000 0.000000 0.000000
vn -1.000000 0.000000 0.000000
vn -1.000000 0.000000 0.000000
vn 0.000000 1.000000 0.000000
vn 0.000000 1.000000 0.000000
vn 0.000000 1.000000 0.000000
vn 0.000000 1.000000 0.000000
vn 0.000000 1.000000 0.000000
vn 0.000000 1.000000 0.000000
vn 0.000000 1.000000 0.000000
vn 0.000000 1.000000 0.000000
vn 0.000000 0.375062 -0.927000
vn 0.000000 0.375062 -0.927000
vn 0.000000 0.375062 -0.927000
vn 0.000000 0.375062 -0.927000
vn -0.927000 0.375062 0.000000
vn -0.927000 0.375062 0.000000
vn -0.927000 0.375062 0.000000
vn -0.927000 0.375062 0.000000
vn 0.000000 0.375062 0.927000
vn 0.000000 0.375062 0.927000
vn 0.000000 0.375062 0.927000
vn 0.000000 0.375062 0.927000
vn 0.927000 0.375062 0.000000
vn 0.927000 0.375062 0.000000
vn 0.927000 0.375062 0.000000
vn 0.927000 0.375062 0.000000
s off
g pCube1
usemtl initialShadingGroup
f 5/27/1 6/29/2 7/31/3 8/33/4
f 3/12/5 4/1/6 2/3/7 1/2/8
f 9/10/9 10/24/10 14/4/11 13/17/12
f 10/24/13 9/10/14 11/14/15 12/18/16
f 12/5/17 11/14/18 15/6/19 16/7/20
f 13/8/21 14/22/22 16/20/23 15/11/24
f 17/19/25 18/32/26 24/30/27 23/25/28
f 18/32/29 17/19/30 19/21/31 20/26/32
f 20/26/33 19/21/34 21/23/35 22/28/36
f 22/28/37 21/23/38 23/25/39 24/30/40
f 1/16/41 2/9/42 11/14/43 9/10/44
f 13/8/45 15/11/46 4/1/47 3/12/48
f 2/9/49 4/13/50 15/6/51 11/14/52
f 3/15/53 1/16/54 9/10/55 13/17/56
s 1
f 10/24/57 12/18/58 19/21/59 17/19/60
f 12/18/58 16/20/61 21/23/62 19/21/59
f 16/20/61 14/22/63 23/25/64 21/23/62
f 14/22/63 10/24/57 17/19/60 23/25/64
s off
f 18/32/65 20/26/66 6/29/67 5/27/68
f 20/26/69 22/28/70 7/31/71 6/29/72
f 22/28/73 24/30/74 8/33/75 7/31/76
f 24/30/77 18/32/78 5/27/79 8/33/80
